<!-- Svg Vector Icons : http://www.onlinewebfonts.com/icon -->
<!DOCTYPE svg PUBLIC "-//W3C//DTD SVG 1.1//EN" "http://www.w3.org/Graphics/SVG/1.1/DTD/svg11.dtd">
<svg version="1.1" xmlns="http://www.w3.org/2000/svg" xmlns:xlink="http://www.w3.org/1999/xlink" x="0px" y="0px" viewBox="0 0 1000 1000" enable-background="new 0 0 1000 1000" xml:space="preserve">
<metadata> Svg Vector Icons : http://www.onlinewebfonts.com/icon </metadata>
<g>
  <path fill="#FFFFFF" d="M500,990C230.5,990,10,769.5,10,500S230.5,10,500,10s490,220.5,490,490S769.5,990,500,990z M500,91.7C275.4,91.7,91.7,275.4,91.7,500c0,224.6,183.8,408.3,408.3,408.3c224.6,0,408.3-183.8,408.3-408.3C908.3,275.4,724.6,91.7,500,91.7z"/>
  <path fill="#FFFFFF" d="M663.3,377.5H336.7c-24.5,0-40.8-16.3-40.8-40.8s16.3-40.8,40.8-40.8h326.7c24.5,0,40.8,16.3,40.8,40.8S687.8,377.5,663.3,377.5z"/>
  <path fill="#FFFFFF" d="M663.3,540.8H336.7c-24.5,0-40.8-16.3-40.8-40.8c0-24.5,16.3-40.8,40.8-40.8h326.7c24.5,0,40.8,16.3,40.8,40.8C704.2,524.5,687.8,540.8,663.3,540.8z"/>
  <path fill="#FFFFFF" d="M663.3,704.2H336.7c-24.5,0-40.8-16.3-40.8-40.8c0-24.5,16.3-40.8,40.8-40.8h326.7c24.5,0,40.8,16.3,40.8,40.8C704.2,687.8,687.8,704.2,663.3,704.2z"/>
</g>
</svg>